<svg version="1.1" id="Layer_1" xmlns="http://www.w3.org/2000/svg" xmlns:xlink="http://www.w3.org/1999/xlink" x="0px" y="0px"
	 width="100%" viewBox="0 0 383 407" enable-background="new 0 0 383 407" xml:space="preserve">
<path fill="#FEFEFE" opacity="1.000000" stroke="none" 
	d="
M219.000000,408.000000 
	C146.022934,408.000000 73.545876,408.000000 1.034406,408.000000 
	C1.034406,272.399200 1.034406,136.798386 1.034406,1.098790 
	C128.560349,1.098790 256.120789,1.098790 383.840637,1.098790 
	C383.840637,136.666519 383.840637,272.333252 383.840637,408.000000 
	C329.131805,408.000000 274.315887,408.000000 219.000000,408.000000 
M159.527756,281.784729 
	C163.850204,281.535126 168.191833,281.465668 172.492035,281.007294 
	C205.632660,277.474792 233.543091,263.437714 256.090271,238.909348 
	C261.510071,233.013351 262.642761,225.869125 259.917206,218.413193 
	C257.094086,210.690308 251.184097,206.316452 243.124130,205.330856 
	C235.594223,204.410065 229.721695,207.809479 224.608963,213.200287 
	C209.211105,229.435638 190.193527,238.645737 168.005692,240.783081 
	C100.732361,247.263458 50.806656,178.296005 77.757751,116.308563 
	C103.487175,57.130947 179.377884,43.904408 225.042618,90.639137 
	C234.222931,100.034561 246.651260,100.783890 255.158524,92.454903 
	C263.523743,84.264984 263.317139,71.818748 254.310669,62.675701 
	C221.730835,29.601852 182.427475,16.469566 136.584869,23.975372 
	C65.689781,35.583012 16.920101,108.177238 32.607399,178.342041 
	C46.170685,239.006760 95.896706,279.834015 159.527756,281.784729 
M304.927399,204.629227 
	C319.568726,226.510284 324.698883,250.393188 318.297668,275.993134 
	C309.849701,309.778748 288.449432,332.335205 255.001190,341.530273 
	C221.071060,350.857758 191.208237,341.686829 166.347000,316.741058 
	C156.969208,307.331390 144.849716,306.356415 136.217239,314.573730 
	C127.591751,322.784363 127.771652,335.341583 137.069992,344.711914 
	C171.687027,379.596863 213.261444,392.265533 261.232025,381.878174 
	C326.805054,367.679199 371.584351,300.184540 359.731384,234.442795 
	C348.350128,171.317276 297.173615,126.947502 233.268005,125.743591 
	C194.559860,125.014374 161.979294,139.755203 135.475601,167.901276 
	C130.582703,173.097382 128.813599,179.398483 130.542816,186.376663 
	C132.459579,194.111725 137.346542,199.218781 145.109207,201.275406 
	C153.572372,203.517609 160.288101,200.476074 166.209793,194.397995 
	C206.564682,152.977249 270.665771,157.481873 304.927399,204.629227 
z"/>
<path fill="#020202" opacity="1.000000" stroke="none" 
	d="
M159.053833,281.777893 
	C95.896706,279.834015 46.170685,239.006760 32.607399,178.342041 
	C16.920101,108.177238 65.689781,35.583012 136.584869,23.975372 
	C182.427475,16.469566 221.730835,29.601852 254.310669,62.675701 
	C263.317139,71.818748 263.523743,84.264984 255.158524,92.454903 
	C246.651260,100.783890 234.222931,100.034561 225.042618,90.639137 
	C179.377884,43.904408 103.487175,57.130947 77.757751,116.308563 
	C50.806656,178.296005 100.732361,247.263458 168.005692,240.783081 
	C190.193527,238.645737 209.211105,229.435638 224.608963,213.200287 
	C229.721695,207.809479 235.594223,204.410065 243.124130,205.330856 
	C251.184097,206.316452 257.094086,210.690308 259.917206,218.413193 
	C262.642761,225.869125 261.510071,233.013351 256.090271,238.909348 
	C233.543091,263.437714 205.632660,277.474792 172.492035,281.007294 
	C168.191833,281.465668 163.850204,281.535126 159.053833,281.777893 
z"/>
<path fill="#010101" opacity="1.000000" stroke="none" 
	d="
M304.716400,204.336258 
	C270.665771,157.481873 206.564682,152.977249 166.209793,194.397995 
	C160.288101,200.476074 153.572372,203.517609 145.109207,201.275406 
	C137.346542,199.218781 132.459579,194.111725 130.542816,186.376663 
	C128.813599,179.398483 130.582703,173.097382 135.475601,167.901276 
	C161.979294,139.755203 194.559860,125.014374 233.268005,125.743591 
	C297.173615,126.947502 348.350128,171.317276 359.731384,234.442795 
	C371.584351,300.184540 326.805054,367.679199 261.232025,381.878174 
	C213.261444,392.265533 171.687027,379.596863 137.069992,344.711914 
	C127.771652,335.341583 127.591751,322.784363 136.217239,314.573730 
	C144.849716,306.356415 156.969208,307.331390 166.347000,316.741058 
	C191.208237,341.686829 221.071060,350.857758 255.001190,341.530273 
	C288.449432,332.335205 309.849701,309.778748 318.297668,275.993134 
	C324.698883,250.393188 319.568726,226.510284 304.716400,204.336258 
z"/>
</svg>